<svg width="636" height="531" viewBox="0 0 636 531" fill="none" xmlns="http://www.w3.org/2000/svg">
<path d="M513.5 35.5H123.5C117.977 35.5 113.5 39.9772 113.5 45.5V97.5C113.5 103.023 117.977 107.5 123.5 107.5H513.5C519.023 107.5 523.5 103.023 523.5 97.5V45.5C523.5 39.9772 519.023 35.5 513.5 35.5Z" fill="white" fill-opacity="0.6" stroke="#350F86" stroke-width="5"/>
<path d="M307 50H304V94H307V50Z" fill="#350F86"/>
<path d="M150 81C155.523 81 160 76.5228 160 71C160 65.4772 155.523 61 150 61C144.477 61 140 65.4772 140 71C140 76.5228 144.477 81 150 81Z" fill="#350F86"/>
<path d="M283 81C288.523 81 293 76.5228 293 71C293 65.4772 288.523 61 283 61C277.477 61 273 65.4772 273 71C273 76.5228 277.477 81 283 81Z" fill="#350F86"/>
<path d="M184 81C189.523 81 194 76.5228 194 71C194 65.4772 189.523 61 184 61C178.477 61 174 65.4772 174 71C174 76.5228 178.477 81 184 81Z" fill="#350F86"/>
<path d="M218 81C223.523 81 228 76.5228 228 71C228 65.4772 223.523 61 218 61C212.477 61 208 65.4772 208 71C208 76.5228 212.477 81 218 81Z" fill="#350F86"/>
<path d="M252 81C257.523 81 262 76.5228 262 71C262 65.4772 257.523 61 252 61C246.477 61 242 65.4772 242 71C242 76.5228 246.477 81 252 81Z" fill="#350F86"/>
<path fill-rule="evenodd" clip-rule="evenodd" d="M449 271L412.745 398.227L386.293 492H367L395.109 271H449Z" fill="#BE9CC2"/>
<path fill-rule="evenodd" clip-rule="evenodd" d="M449 271L412.745 398.227L386.293 492H367L395.109 271H449Z" fill="black" fill-opacity="0.1"/>
<path fill-rule="evenodd" clip-rule="evenodd" d="M458.696 271C459.534 336.574 462.394 372.34 463.274 378.298C464.155 384.256 477.468 422.156 503.214 492H483.227C450.451 424.997 432.154 387.096 428.337 378.298C424.521 369.5 412.741 333.734 395 271H458.696Z" fill="#BE9CC2"/>
<path fill-rule="evenodd" clip-rule="evenodd" d="M505 510L504 489H483C473.042 496 460.042 501.667 444 506V510H482L495 508V510H505Z" fill="#453B6B"/>
<path fill-rule="evenodd" clip-rule="evenodd" d="M389 510L388 489H367C357.042 496 344.042 501.667 328 506V510H366L379 508V510H389Z" fill="#453B6B"/>
<path fill-rule="evenodd" clip-rule="evenodd" d="M402.857 107.134C397.062 117.935 397.75 145.333 405.24 147.263C408.226 148.033 414.589 146.148 421.064 142.245L417 171H441L432.738 132.489C437.346 127.081 440.464 120.453 439.943 113.025C438.442 91.625 408.651 96.3328 402.857 107.134Z" fill="#9963A0"/>
<path fill-rule="evenodd" clip-rule="evenodd" d="M395.773 95.2268C394.471 103.39 398.671 109.972 413.439 108.701C416.697 110.521 419.016 113.935 421.806 118.414C422.486 118.147 423.226 118 424 118C427.314 118 430 120.686 430 124C430 125.682 429.308 127.203 428.192 128.292C429.58 130.251 431.136 132.298 432.92 134.411C438.994 130.767 443.647 120.752 439.577 110.49L439.591 110.477C434.783 86.6205 401.815 99.074 395.773 95.2268Z" fill="#453B6B"/>
<path fill-rule="evenodd" clip-rule="evenodd" d="M419.865 115.387C418.946 128.185 416.516 134.585 412.574 134.585C406.661 134.585 401.645 130.831 399.05 130.831C397.159 130.831 397.581 133.198 398.835 134.952C399.869 136.4 404.906 137.796 404.906 140.04C404.906 142.284 400.927 140.548 400.927 141.879C400.927 144.081 400.227 148.221 404.049 148.221C407.916 148.221 419.005 146.812 420.906 141.071C422.172 137.245 422.977 129.18 423.319 116.876L419.865 115.387Z" fill="#453B6B"/>
<path fill-rule="evenodd" clip-rule="evenodd" d="M403.912 119.266C402.557 115.199 400.593 112.685 397.66 113.363C394.163 114.17 393.892 118.448 395.081 123.973L395.222 124.603C396.567 130.43 398.711 134.475 402.34 133.637C405.769 132.846 406.096 128.718 404.987 123.351C415.251 119.784 421.37 118 423.346 118C424.431 118 425.59 118.425 426.825 119.274C427.368 119.647 428.111 119.51 428.484 118.967C428.705 118.646 428.755 118.236 428.618 117.871L428.398 117.287C427.489 114.872 424.892 113.545 422.403 114.224L403.912 119.266ZM398.313 116.192C399.389 115.944 401.017 119.014 401.949 123.05L402.015 123.344C402.874 127.254 402.737 130.565 401.687 130.808C400.611 131.056 398.983 127.986 398.051 123.95C397.119 119.914 397.237 116.441 398.313 116.192Z" fill="#6755D5"/>
<path fill-rule="evenodd" clip-rule="evenodd" d="M503.461 234.375L485.85 237.564C506.29 278.125 517.237 299.571 518.693 301.902C521.967 307.148 518.662 316.599 517.414 321.585C524.661 323.406 521.983 312.402 531.15 314.85C539.518 317.084 546.55 322.566 554.513 315.477C555.492 314.606 556.246 311.841 552.986 310.36C544.864 306.669 532.888 299.815 530.973 297.201C528.361 293.637 519.19 272.695 503.461 234.375ZM359.11 244.131L327.212 267.555C318.561 269.89 311.333 272.794 305.528 276.269C304.157 277.518 302.5 280.048 308.186 279.611C313.873 279.174 319.874 278.969 320.658 280.909C321.443 282.849 318.002 285.168 319.588 287.785C320.645 289.53 325.641 285.155 334.574 274.661L366.162 261.562L359.11 244.131Z" fill="#9963A0"/>
<path fill-rule="evenodd" clip-rule="evenodd" d="M416.736 161.041C401.827 191.859 381.65 221.424 351.678 246.679C347.574 246.384 343.11 247.063 338.325 248.676C335.97 249.469 334.704 252.022 335.497 254.377C335.958 255.745 337.012 256.745 338.276 257.188C337.361 257.856 336.437 258.521 335.505 259.182L343.552 275.61C377.415 258.726 409.243 245.996 423.746 218.122C428.614 208.766 426.966 176.988 427.431 165.428L416.736 161.041Z" fill="#6755D5"/>
<path fill-rule="evenodd" clip-rule="evenodd" d="M465 272.91C433.562 276.363 408.816 276.363 390.764 272.91C388.527 272.482 388.625 262.84 389.663 260.207C405.815 219.202 416.44 189.184 416.44 160.703C419.403 162.251 424.59 162.483 432 161.399C451.914 190.75 461.067 224.427 465 272.91Z" fill="white"/>
<path fill-rule="evenodd" clip-rule="evenodd" d="M428.652 159C432 203.281 385.75 299.955 401.809 382.518C431.492 389.147 473.868 368.523 515.117 385C513.582 351.75 482.836 312.69 470.841 277.756C471.909 276.753 472.466 275.247 472.192 273.696L471.671 270.741C471.318 268.74 469.694 267.283 467.775 267.054C467.437 265.554 467.147 264.063 466.908 262.583C464.89 250.088 468.338 237.835 468.177 225.803C484.257 239.522 498.682 263.211 511.452 296.871L530.339 291.313C529.618 288.636 528.871 285.99 528.099 283.378C530.278 282.145 532.827 276.466 530.993 275.516C529.1 274.535 527.095 273.845 524.983 273.439C507.665 221.28 479.346 183.133 440.024 159L428.652 159Z" fill="#6755D5"/>
<path fill-rule="evenodd" clip-rule="evenodd" d="M435.894 160L441.053 175.865L430.664 187.759L440.053 197.106L417.338 236L445.116 197.183L435.894 187.759L445.116 177.248L435.894 160Z" fill="black" fill-opacity="0.1"/>
<path fill-rule="evenodd" clip-rule="evenodd" d="M418 289C415.791 289 414 290.791 414 293C414 295.209 415.791 297 418 297C420.209 297 422 295.209 422 293C422 290.791 420.209 289 418 289ZM419 266C416.791 266 415 267.791 415 270C415 272.209 416.791 274 419 274C421.209 274 423 272.209 423 270C423 267.791 421.209 266 419 266ZM424 243C421.791 243 420 244.791 420 247C420 249.209 421.791 251 424 251C426.209 251 428 249.209 428 247C428 244.791 426.209 243 424 243Z" fill="black" fill-opacity="0.4"/>
</svg>
