<svg width="447" height="431" viewBox="0 0 447 431" fill="none" xmlns="http://www.w3.org/2000/svg">
<g clip-path="url(#clip0)">
<g opacity="0.1">
<path opacity="0.1" d="M357.918 305.354C357.918 305.354 326.007 299.955 349.806 367.253C349.806 367.253 371.494 355.143 372.357 327.828C372.533 322.512 371.206 317.297 368.628 313.171C366.05 309.044 362.4 306.293 358.37 305.439L357.918 305.354Z" fill="#5B56AC"/>
<path opacity="0.1" d="M358.386 305.253C358.386 305.253 365.61 342.778 349.83 367.259" stroke="#111542" stroke-miterlimit="10"/>
<path opacity="0.1" d="M349.398 370.726C349.398 370.726 360.888 333.827 382.344 320.14C391.378 314.474 398.757 305.14 403.372 293.541C405.528 288.017 407.291 282.247 408.64 276.303" stroke="#111542" stroke-width="2" stroke-miterlimit="10"/>
<path opacity="0.1" d="M422.122 267.58C419.885 271.243 408.31 276.605 408.31 276.605C408.31 276.605 409.703 260.678 411.94 257.041C412.45 256.092 413.104 255.289 413.862 254.681C414.619 254.073 415.464 253.674 416.344 253.508C417.224 253.341 418.121 253.411 418.98 253.714C419.839 254.016 420.641 254.544 421.337 255.266C422.033 255.987 422.609 256.886 423.028 257.908C423.448 258.93 423.702 260.054 423.776 261.209C423.85 262.364 423.742 263.526 423.458 264.625C423.174 265.723 422.721 266.734 422.126 267.596L422.122 267.58Z" fill="#5B56AC"/>
<path opacity="0.1" d="M418.149 296.594C414.743 298.086 402.797 294.375 402.797 294.375C402.797 294.375 410.599 282.015 414.006 280.523C414.831 280.083 415.716 279.867 416.608 279.891C417.499 279.914 418.378 280.175 419.189 280.658C420 281.141 420.726 281.836 421.322 282.7C421.919 283.563 422.373 284.577 422.657 285.678C422.941 286.78 423.049 287.945 422.973 289.103C422.898 290.261 422.641 291.386 422.218 292.409C421.796 293.432 421.217 294.331 420.517 295.051C419.817 295.771 419.011 296.296 418.149 296.594Z" fill="#5B56AC"/>
<path opacity="0.1" d="M396.612 330.896C393.096 329.946 384.218 318.882 384.218 318.882C384.218 318.882 395.74 313.345 399.261 314.295C400.853 314.873 402.218 316.219 403.078 318.059C403.938 319.9 404.229 322.097 403.893 324.207C403.556 326.317 402.617 328.181 401.265 329.422C399.913 330.663 398.25 331.188 396.612 330.891V330.896Z" fill="#5B56AC"/>
<path opacity="0.1" d="M375.833 352.069C372.243 351.905 362.057 342.959 362.057 342.959C362.057 342.959 372.7 334.953 376.289 335.123C377.935 335.341 379.455 336.366 380.543 337.99C381.63 339.615 382.202 341.717 382.144 343.871C382.086 346.026 381.402 348.07 380.23 349.592C379.058 351.113 377.486 351.997 375.833 352.064V352.069Z" fill="#5B56AC"/>
<path opacity="0.1" d="M391.674 283.985C392.134 288.631 399.912 301.011 399.912 301.011C399.912 301.011 405.034 286.464 404.578 281.819C404.522 280.659 404.284 279.526 403.878 278.491C403.473 277.456 402.909 276.54 402.221 275.8C401.533 275.06 400.736 274.513 399.879 274.19C399.022 273.868 398.123 273.778 397.238 273.927C396.354 274.075 395.502 274.459 394.736 275.054C393.969 275.648 393.305 276.442 392.783 277.384C392.262 278.327 391.894 279.4 391.703 280.535C391.512 281.67 391.503 282.844 391.674 283.985V283.985Z" fill="#5B56AC"/>
<path opacity="0.1" d="M367.611 309.172C369.114 313.419 379.382 322.205 379.382 322.205C379.382 322.205 380.93 306.326 379.427 302.079C379.106 300.995 378.619 300.008 377.994 299.179C377.369 298.35 376.621 297.697 375.795 297.26C374.969 296.823 374.083 296.612 373.192 296.639C372.301 296.666 371.423 296.931 370.614 297.417C369.804 297.903 369.08 298.601 368.485 299.466C367.891 300.332 367.439 301.347 367.157 302.449C366.876 303.552 366.771 304.717 366.849 305.874C366.927 307.031 367.186 308.155 367.611 309.177V309.172Z" fill="#5B56AC"/>
<path opacity="0.1" d="M346.799 337.809C347.728 342.332 356.712 353.248 356.712 353.248C356.712 353.248 360.297 337.942 359.364 333.418C359.191 332.278 358.839 331.195 358.332 330.239C357.824 329.282 357.171 328.472 356.413 327.857C355.656 327.243 354.809 326.838 353.926 326.667C353.043 326.496 352.143 326.564 351.281 326.865C350.419 327.166 349.614 327.695 348.915 328.418C348.216 329.142 347.639 330.044 347.218 331.07C346.798 332.096 346.544 333.224 346.472 334.383C346.4 335.542 346.511 336.708 346.799 337.809Z" fill="#5B56AC"/>
<path opacity="0.25" d="M422.122 267.58C419.885 271.243 408.31 276.605 408.31 276.605C408.31 276.605 409.703 260.678 411.94 257.041C412.45 256.092 413.104 255.289 413.862 254.681C414.619 254.073 415.464 253.674 416.344 253.508C417.224 253.341 418.121 253.411 418.98 253.714C419.839 254.016 420.641 254.544 421.337 255.266C422.033 255.987 422.609 256.886 423.028 257.908C423.448 258.93 423.702 260.054 423.776 261.209C423.85 262.364 423.742 263.526 423.458 264.625C423.174 265.723 422.721 266.734 422.126 267.596L422.122 267.58Z" fill="black"/>
<path opacity="0.25" d="M418.149 296.594C414.743 298.086 402.797 294.375 402.797 294.375C402.797 294.375 410.599 282.015 414.006 280.523C414.831 280.083 415.716 279.867 416.608 279.891C417.499 279.914 418.378 280.175 419.189 280.658C420 281.141 420.726 281.836 421.322 282.7C421.919 283.563 422.373 284.577 422.657 285.678C422.941 286.78 423.049 287.945 422.973 289.103C422.898 290.261 422.641 291.386 422.218 292.409C421.796 293.432 421.217 294.331 420.517 295.051C419.817 295.771 419.011 296.296 418.149 296.594Z" fill="black"/>
<path opacity="0.25" d="M396.612 330.896C393.096 329.946 384.218 318.882 384.218 318.882C384.218 318.882 395.74 313.345 399.261 314.295C400.853 314.873 402.218 316.219 403.078 318.059C403.938 319.9 404.229 322.097 403.893 324.207C403.556 326.317 402.617 328.181 401.265 329.422C399.913 330.663 398.25 331.188 396.612 330.891V330.896Z" fill="black"/>
<path opacity="0.25" d="M375.833 352.069C372.243 351.905 362.057 342.959 362.057 342.959C362.057 342.959 372.7 334.953 376.289 335.123C377.935 335.341 379.455 336.366 380.543 337.99C381.63 339.615 382.202 341.717 382.144 343.871C382.086 346.026 381.402 348.07 380.23 349.592C379.058 351.113 377.486 351.997 375.833 352.064V352.069Z" fill="black"/>
<path opacity="0.25" d="M391.674 283.985C392.134 288.631 399.912 301.011 399.912 301.011C399.912 301.011 405.034 286.464 404.578 281.819C404.522 280.659 404.284 279.526 403.878 278.491C403.473 277.456 402.909 276.54 402.221 275.8C401.533 275.06 400.736 274.513 399.879 274.19C399.022 273.868 398.123 273.778 397.238 273.927C396.354 274.075 395.502 274.459 394.736 275.054C393.969 275.648 393.305 276.442 392.783 277.384C392.262 278.327 391.894 279.4 391.703 280.535C391.512 281.67 391.503 282.844 391.674 283.985V283.985Z" fill="black"/>
<path opacity="0.25" d="M367.611 309.172C369.114 313.419 379.382 322.205 379.382 322.205C379.382 322.205 380.93 306.326 379.427 302.079C379.106 300.995 378.619 300.008 377.994 299.179C377.369 298.35 376.621 297.697 375.795 297.26C374.969 296.823 374.083 296.612 373.192 296.639C372.301 296.666 371.423 296.931 370.614 297.417C369.804 297.903 369.08 298.601 368.485 299.466C367.891 300.332 367.439 301.347 367.157 302.449C366.876 303.552 366.771 304.717 366.849 305.874C366.927 307.031 367.186 308.155 367.611 309.177V309.172Z" fill="black"/>
<path opacity="0.25" d="M346.799 337.809C347.728 342.332 356.712 353.248 356.712 353.248C356.712 353.248 360.297 337.942 359.364 333.418C359.191 332.278 358.839 331.195 358.332 330.239C357.824 329.282 357.171 328.472 356.413 327.857C355.656 327.243 354.809 326.838 353.926 326.667C353.043 326.496 352.143 326.564 351.281 326.865C350.419 327.166 349.614 327.695 348.915 328.418C348.216 329.142 347.639 330.044 347.218 331.07C346.798 332.096 346.544 333.224 346.472 334.383C346.4 335.542 346.511 336.708 346.799 337.809Z" fill="black"/>
<path opacity="0.1" d="M364.702 387.513C364.702 387.513 376.191 350.615 397.647 336.928C406.678 331.257 414.052 321.922 418.663 310.324C420.819 304.799 422.583 299.029 423.931 293.085" stroke="#111542" stroke-width="2" stroke-miterlimit="10"/>
<path opacity="0.1" d="M437.405 284.357C435.168 288.02 423.593 293.382 423.593 293.382C423.593 293.382 424.986 277.455 427.223 273.818C428.334 272.21 429.873 271.214 431.528 271.034C433.182 270.855 434.827 271.504 436.127 272.851C437.426 274.197 438.283 276.139 438.521 278.281C438.759 280.422 438.361 282.6 437.409 284.373L437.405 284.357Z" fill="#5B56AC"/>
<path opacity="0.1" d="M433.441 313.371C430.034 314.863 418.088 311.152 418.088 311.152C418.088 311.152 425.891 298.792 429.297 297.3C430.897 296.747 432.599 297.008 434.058 298.031C435.516 299.053 436.621 300.76 437.148 302.806C437.675 304.851 437.586 307.081 436.897 309.043C436.208 311.006 434.973 312.553 433.441 313.371V313.371Z" fill="#5B56AC"/>
<path opacity="0.1" d="M411.903 347.695C408.387 346.744 399.509 335.68 399.509 335.68C399.509 335.68 411.031 330.143 414.552 331.093C416.145 331.671 417.509 333.017 418.369 334.857C419.229 336.698 419.521 338.895 419.184 341.005C418.847 343.115 417.908 344.979 416.556 346.22C415.204 347.461 413.541 347.986 411.903 347.689V347.695Z" fill="#5B56AC"/>
<path opacity="0.1" d="M391.12 368.841C387.53 368.676 377.344 359.73 377.344 359.73C377.344 359.73 387.987 351.735 391.576 351.899C393.222 352.118 394.742 353.143 395.83 354.767C396.917 356.392 397.489 358.494 397.431 360.648C397.373 362.802 396.689 364.847 395.517 366.368C394.345 367.89 392.773 368.774 391.12 368.841V368.841Z" fill="#5B56AC"/>
<path opacity="0.1" d="M406.961 300.783C407.422 305.429 415.2 317.81 415.2 317.81C415.2 317.81 420.321 303.262 419.865 298.617C419.809 297.457 419.571 296.324 419.165 295.289C418.76 294.254 418.196 293.338 417.508 292.598C416.82 291.859 416.023 291.311 415.166 290.988C414.309 290.666 413.41 290.577 412.526 290.725C411.641 290.874 410.789 291.257 410.023 291.852C409.256 292.446 408.592 293.24 408.07 294.183C407.549 295.125 407.181 296.198 406.99 297.333C406.8 298.468 406.79 299.643 406.961 300.783V300.783Z" fill="#5B56AC"/>
<path opacity="0.1" d="M382.902 325.927C384.405 330.174 394.673 338.961 394.673 338.961C394.673 338.961 396.221 323.081 394.718 318.834C393.929 316.936 392.615 315.501 391.043 314.82C389.472 314.138 387.76 314.262 386.256 315.166C384.752 316.069 383.568 317.685 382.945 319.685C382.322 321.685 382.307 323.918 382.902 325.932V325.927Z" fill="#5B56AC"/>
<path opacity="0.1" d="M362.09 354.596C363.019 359.12 372.003 370.035 372.003 370.035C372.003 370.035 375.588 354.729 374.655 350.206C374.122 348.165 373.013 346.466 371.554 345.451C370.095 344.436 368.394 344.182 366.796 344.74C365.198 345.299 363.823 346.627 362.95 348.457C362.076 350.288 361.768 352.482 362.09 354.596Z" fill="#5B56AC"/>
</g>
<path opacity="0.1" d="M4.82816 228.276C11.9013 267.67 26.8746 301.723 50.5386 318.229C99.7163 352.531 210.625 334.841 293.4 314.512C335.223 304.278 373.187 276.003 401.18 234.239L4.82816 228.276Z" fill="#5B56AC"/>
<path opacity="0.1" d="M438.892 42.8499H393.475C392.434 42.8499 391.435 42.3109 390.699 41.3516C389.963 40.3923 389.549 39.0912 389.549 37.7345C389.549 36.3779 389.963 35.0768 390.699 34.1174C391.435 33.1581 392.434 32.6192 393.475 32.6192H401.326C400.285 32.6192 399.287 32.0803 398.55 31.121C397.814 30.1616 397.401 28.8605 397.401 27.5039C397.401 26.1472 397.814 24.8461 398.55 23.8868C399.287 22.9275 400.285 22.3885 401.326 22.3885H395.72C394.679 22.3885 393.68 21.8496 392.944 20.8903C392.208 19.931 391.794 18.6299 391.794 17.2732C391.794 15.9165 392.208 14.6154 392.944 13.6561C393.68 12.6968 394.679 12.1578 395.72 12.1578H419.425C414.165 8.97236 408.016 6.70537 400.935 5.51613C336.299 -5.30387 313.222 1.85283 305.081 9.23251C295.038 18.3111 283.833 24.99 271.859 28.2073C231.975 38.9158 157.393 51.817 89.7952 24.0662C56.1979 10.2625 31.2261 33.5802 16.2609 72.5279H446.776C446.214 61.2088 444.531 50.7605 441.443 41.6076C440.734 42.4072 439.829 42.8481 438.892 42.8499Z" fill="#5B56AC"/>
<path opacity="0.1" d="M0.973772 146.054C-0.769852 168.966 -0.176625 192.077 2.73798 214.786L401.489 233.787C412.589 217.149 421.909 198.629 429.195 178.732L0.973772 146.054ZM158.685 195.084H150.833C151.875 195.084 152.873 195.623 153.609 196.582C154.346 197.541 154.759 198.842 154.759 200.199C154.759 201.556 154.346 202.857 153.609 203.816C152.873 204.776 151.875 205.314 150.833 205.314H105.416C104.375 205.314 103.377 204.776 102.641 203.816C101.904 202.857 101.491 201.556 101.491 200.199C101.491 198.842 101.904 197.541 102.641 196.582C103.377 195.623 104.375 195.084 105.416 195.084H113.268C112.227 195.084 111.228 194.545 110.492 193.586C109.756 192.626 109.342 191.325 109.342 189.968C109.342 188.612 109.756 187.311 110.492 186.351C111.228 185.392 112.227 184.853 113.268 184.853H107.661C106.62 184.853 105.622 184.314 104.885 183.355C104.149 182.396 103.736 181.094 103.736 179.738C103.736 178.381 104.149 177.08 104.885 176.121C105.622 175.161 106.62 174.622 107.661 174.622H153.078C154.12 174.622 155.118 175.161 155.854 176.121C156.591 177.08 157.004 178.381 157.004 179.738C157.004 181.094 156.591 182.396 155.854 183.355C155.118 184.314 154.12 184.853 153.078 184.853H158.685C159.726 184.853 160.724 185.392 161.461 186.351C162.197 187.311 162.61 188.612 162.61 189.968C162.61 191.325 162.197 192.626 161.461 193.586C160.724 194.545 159.726 195.084 158.685 195.084Z" fill="#5B56AC"/>
<path opacity="0.1" d="M446.796 72.8837L11.4531 86.6874C6.16046 104.425 2.66872 124.478 1.03897 145.263H439.169C442.03 133.053 444.145 120.568 445.496 107.924C446.8 95.7076 447.322 83.8895 446.796 72.8837ZM89.4204 118.101H81.569C82.6102 118.101 83.6087 118.64 84.3449 119.6C85.0811 120.559 85.4947 121.86 85.4947 123.217C85.4947 124.573 85.0811 125.875 84.3449 126.834C83.6087 127.793 82.6102 128.332 81.569 128.332H36.152C35.1108 128.332 34.1123 127.793 33.3761 126.834C32.6399 125.875 32.2263 124.573 32.2263 123.217C32.2263 121.86 32.6399 120.559 33.3761 119.6C34.1123 118.64 35.1108 118.101 36.152 118.101H44.0033C42.9621 118.101 41.9636 117.563 41.2274 116.603C40.4912 115.644 40.0776 114.343 40.0776 112.986C40.0776 111.629 40.4912 110.328 41.2274 109.369C41.9636 108.41 42.9621 107.871 44.0033 107.871H38.3969C37.3558 107.871 36.3573 107.332 35.6211 106.373C34.8849 105.413 34.4713 104.112 34.4713 102.755C34.4713 101.399 34.8849 100.098 35.6211 99.1383C36.3573 98.179 37.3558 97.6401 38.3969 97.6401H83.814C84.8552 97.6401 85.8537 98.179 86.5899 99.1383C87.3261 100.098 87.7397 101.399 87.7397 102.755C87.7397 104.112 87.3261 105.413 86.5899 106.373C85.8537 107.332 84.8552 107.871 83.814 107.871H89.4204C90.4615 107.871 91.46 108.41 92.1962 109.369C92.9324 110.328 93.346 111.629 93.346 112.986C93.346 114.343 92.9324 115.644 92.1962 116.603C91.46 117.563 90.4615 118.101 89.4204 118.101V118.101Z" fill="#5B56AC"/>
<path d="M373 430.729C373 430.729 355.714 303.255 322.753 282.569C294.823 265.028 264.619 253.204 256.031 249.996C254.748 247.218 253.266 244.617 251.604 242.23C239.866 225.753 232.814 226.061 231.673 226.264C231.132 222.997 230.743 219.687 230.509 216.354C230.475 215.832 230.44 215.347 230.409 214.831L230.509 214.763C230.44 213.777 230.378 212.76 230.323 211.712C235.115 208.273 239.527 203.953 243.431 198.876C243.481 199.1 243.524 199.324 243.578 199.554C252.038 189.939 260.322 180.064 268.432 169.928C270.76 167.002 273.204 163.826 273.995 159.7C274.249 158.28 274.347 156.818 274.286 155.36C274.391 152.231 273.84 149.034 273.747 145.862C273.747 145.341 273.79 144.856 273.84 144.36C274.383 139.171 277.068 134.909 279.271 130.554C284.776 119.548 287.649 106.544 287.506 93.2819C287.567 86.9274 286.913 80.597 285.567 74.505C283.848 66.7752 280.272 58.6542 274.317 56.9643C272.013 56.3123 269.619 56.7192 267.269 56.5157C257.536 55.6812 250.251 45.041 242.488 37.2433C233.015 27.7725 221.811 21.9258 210.066 20.3233C206.4 19.8017 202.614 19.7652 199.127 21.3299C191.295 24.8349 186.539 35.6577 178.994 40.1068C173.415 43.4136 166.968 42.8764 161.149 45.3591C152.487 49.0624 145.136 61.0065 144.942 73.2793C144.942 73.7331 144.942 74.1869 144.942 74.6407C144.942 74.7189 144.942 74.7971 144.942 74.8702C144.845 81.0717 146.494 87.3881 146.626 93.7357C146.626 94.3095 146.632 94.8849 146.645 95.4621C146.602 102.316 145.993 109.19 144.135 115.632C143.134 119.1 141.847 123.116 142.056 126.585C141.94 128.708 142.246 130.7 143.344 132.322L145.218 130.1C144.589 134.673 144.274 139.314 144.275 143.964C144.275 167.404 152.204 188.392 164.711 202.516C164.783 204.078 164.853 205.75 164.92 207.534C165.215 215.264 165.448 224.96 165.382 235.527L147.087 258.138L100.056 286.825C100.056 286.825 57.0435 299.04 66.3071 380.287L70.7293 430.734H109.998L109.909 431H168.194L168.229 430.734H306.902L306.875 431H312.306V430.734L373 430.729ZM232.018 227.558C233.207 230.864 234.143 234.324 234.811 237.885C233.439 234.458 232.425 230.794 231.797 226.994L231.856 227.135L232.018 227.558ZM165.366 237.989C165.366 238.984 165.353 239.987 165.327 240.999L165.234 241.176C165.228 240.102 165.272 239.029 165.366 237.963V237.989Z" fill="#4334A2" fill-opacity="0.8"/>
<path d="M250.493 247.564L242.344 348.969L198.748 367.02C198.748 367.02 142.114 353.216 156.782 313.398C167.217 285.073 166.927 234.456 165.892 207.592C165.485 196.687 164.931 189.695 164.931 189.695C164.931 189.695 239.084 105.28 232.973 181.2C231.791 195.901 231.722 207.396 232.378 216.379C235.128 253.776 250.493 247.564 250.493 247.564Z" fill="#FDC2CC"/>
<path opacity="0.03" d="M250.493 247.564L242.344 348.969L198.748 367.02C198.748 367.02 142.114 353.216 156.782 313.398C167.217 285.073 166.927 234.456 165.892 207.592C165.485 196.687 164.931 189.695 164.931 189.695C164.931 189.695 239.084 105.28 232.973 181.2C231.791 195.901 231.722 207.396 232.378 216.379C235.128 253.776 250.493 247.564 250.493 247.564Z" fill="black"/>
<path opacity="0.1" d="M232.973 179.608C231.791 194.309 231.722 205.803 232.378 214.786C221.91 222.233 209.957 225.379 198.091 223.811C186.225 222.243 175 216.034 165.892 205.999C165.485 195.094 164.931 188.102 164.931 188.102C164.931 188.102 239.084 103.687 232.973 179.608Z" fill="black"/>
<path d="M204.045 221.024C236.673 221.024 263.123 186.558 263.123 144.042C263.123 101.526 236.673 67.0595 204.045 67.0595C171.417 67.0595 144.966 101.526 144.966 144.042C144.966 186.558 171.417 221.024 204.045 221.024Z" fill="#FDC2CC"/>
<path opacity="0.03" d="M204.045 221.024C236.673 221.024 263.123 186.558 263.123 144.042C263.123 101.526 236.673 67.0595 204.045 67.0595C171.417 67.0595 144.966 101.526 144.966 144.042C144.966 186.558 171.417 221.024 204.045 221.024Z" fill="black"/>
<path opacity="0.1" d="M106.667 350.031C106.667 350.031 125.817 400.998 126.835 430.995Z" fill="black"/>
<path opacity="0.1" d="M315.275 379.236L309.775 431H315.275V379.236Z" fill="black"/>
<path opacity="0.1" d="M110.945 430.995L141.299 341.005C141.299 341.005 149.856 319.769 151.893 298.532C153.93 277.296 164.931 243.848 164.931 243.848C164.931 243.848 192.229 198.721 204.86 205.091C217.49 211.462 193.859 235.353 193.859 235.353C193.859 235.353 228.491 252.874 204.86 304.903C181.228 356.932 180.821 347.376 180.821 347.376L169.209 430.995H110.945Z" fill="black"/>
<path d="M110.13 430.995L140.485 341.005C140.485 341.005 149.041 319.769 151.078 298.532C152.374 285.031 157.291 266.592 160.702 254.949C162.928 247.338 166.203 240.32 170.366 234.244C179.191 221.375 195.22 200.621 204.045 205.081C216.675 211.452 193.044 235.343 193.044 235.343C193.044 235.343 227.676 252.863 204.045 304.892C180.413 356.922 180.006 347.365 180.006 347.365L168.394 430.984L110.13 430.995Z" fill="#FDC2CC"/>
<path opacity="0.15" d="M222.176 102.365C222.851 102.365 223.398 101.652 223.398 100.772C223.398 99.8928 222.851 99.1797 222.176 99.1797C221.501 99.1797 220.954 99.8928 220.954 100.772C220.954 101.652 221.501 102.365 222.176 102.365Z" fill="white"/>
<path opacity="0.15" d="M216.472 105.551C217.147 105.551 217.694 104.838 217.694 103.958C217.694 103.078 217.147 102.365 216.472 102.365C215.797 102.365 215.249 103.078 215.249 103.958C215.249 104.838 215.797 105.551 216.472 105.551Z" fill="white"/>
<path d="M162.075 45.4355C167.97 42.9508 174.514 43.487 180.169 40.1848C187.817 35.7145 192.637 24.8945 200.573 21.3905C204.11 19.8296 207.948 19.888 211.66 20.387C223.596 22.0057 234.962 27.8579 244.524 37.3072C252.391 45.1063 259.774 55.7405 269.638 56.574C272.022 56.7758 274.446 56.367 276.781 57.02C282.827 58.7083 286.449 66.8259 288.189 74.5401C290.202 83.6823 290.673 93.2835 289.572 102.686C288.471 112.088 285.822 121.068 281.808 129.012C279.576 133.365 276.854 137.628 276.304 142.815C275.766 147.902 277.428 153.174 276.459 158.154C275.644 162.279 273.199 165.454 270.82 168.379C262.603 178.505 254.206 188.371 245.628 197.977C241.171 179.523 247.71 159.651 246.691 140.352C246.284 132.834 244.247 124.626 239.158 121.08C234.395 117.767 228.308 119.487 223.488 116.302C218.11 112.771 215.901 104.409 211.835 98.6223C204.909 88.7473 192.885 87.4731 183.2 91.9328C173.516 96.3925 165.599 105.567 157.939 114.513L144.017 130.785C141.299 126.793 143.361 120.666 144.832 115.675C147.024 108.195 147.505 100.13 147.358 92.1876C147.24 85.8167 145.553 79.5254 145.651 73.3243C145.846 61.0921 153.294 49.1359 162.075 45.4355Z" fill="#865A61"/>
</g>
<defs>
<clipPath id="clip0">
<rect width="447" height="431" fill="white"/>
</clipPath>
</defs>
</svg>
